<svg xmlns="http://www.w3.org/2000/svg" width="114" height="34" viewBox="0 0 114 34">
    <path fill="#BBB" fill-rule="nonzero" d="M0 25.874V0h4.966v21.464h13.026v4.41H0zm29.436.364c-1.536 0-2.915-.267-4.139-.802-1.223-.534-2.26-1.257-3.112-2.168a9.589 9.589 0 0 1-1.962-3.152 10.407 10.407 0 0 1-.683-3.754c0-1.336.228-2.6.683-3.79a9.589 9.589 0 0 1 1.962-3.152c.851-.91 1.889-1.634 3.112-2.168 1.224-.535 2.603-.802 4.139-.802 1.535 0 2.908.267 4.12.802 1.211.534 2.243 1.257 3.095 2.168a9.589 9.589 0 0 1 1.96 3.152c.457 1.19.684 2.454.684 3.79 0 1.312-.227 2.563-.683 3.754a9.744 9.744 0 0 1-1.943 3.152c-.84.911-1.872 1.634-3.095 2.168-1.224.535-2.603.802-4.138.802zm-4.93-9.876c0 .85.126 1.622.378 2.314a5.67 5.67 0 0 0 1.043 1.804c.444.51.966.905 1.565 1.185.6.279 1.248.419 1.944.419.695 0 1.343-.14 1.943-.42a4.67 4.67 0 0 0 1.565-1.184 5.63 5.63 0 0 0 1.044-1.822c.252-.704.378-1.482.378-2.332 0-.826-.126-1.591-.378-2.296a5.63 5.63 0 0 0-1.044-1.822 4.67 4.67 0 0 0-1.565-1.184c-.6-.28-1.248-.42-1.943-.42-.696 0-1.344.146-1.944.438a4.89 4.89 0 0 0-1.565 1.202 5.63 5.63 0 0 0-1.043 1.822 6.772 6.772 0 0 0-.378 2.296zm25.333 9.62c-1.247 0-2.393-.254-3.437-.764a8.108 8.108 0 0 1-2.68-2.096 9.75 9.75 0 0 1-1.728-3.08 11.179 11.179 0 0 1-.611-3.716c0-1.385.215-2.673.647-3.863a10.053 10.053 0 0 1 1.8-3.134 8.27 8.27 0 0 1 2.752-2.114c1.068-.51 2.25-.765 3.545-.765 1.487 0 2.783.334 3.886 1.002a8.062 8.062 0 0 1 2.7 2.679V6.778h4.21v18.184c0 1.41-.259 2.673-.774 3.79a8.013 8.013 0 0 1-2.177 2.843c-.936.777-2.04 1.372-3.311 1.785-1.271.413-2.663.62-4.174.62-2.087 0-3.833-.346-5.236-1.039a10.563 10.563 0 0 1-3.617-2.933l2.627-2.587a7.48 7.48 0 0 0 2.717 2.113 8.183 8.183 0 0 0 3.509.765c.743 0 1.457-.103 2.14-.31a4.967 4.967 0 0 0 1.8-.965c.516-.437.924-.996 1.224-1.676.3-.68.45-1.482.45-2.406v-2.405a6.4 6.4 0 0 1-2.628 2.533 7.67 7.67 0 0 1-3.634.893zm1.655-3.898a4.49 4.49 0 0 0 1.512-.255c.48-.17.917-.401 1.313-.693.396-.291.75-.632 1.062-1.02.312-.389.551-.802.72-1.24v-4.554c-.432-1.118-1.104-2.017-2.016-2.697-.911-.68-1.871-1.02-2.879-1.02-.743 0-1.421.163-2.033.491a4.964 4.964 0 0 0-1.565 1.312 5.953 5.953 0 0 0-.99 1.877 7.06 7.06 0 0 0-.341 2.187c0 .777.131 1.506.395 2.186.264.68.63 1.276 1.098 1.786.468.51 1.02.91 1.655 1.202a4.904 4.904 0 0 0 2.07.438zm22.49 4.154c-1.535 0-2.914-.267-4.137-.802-1.224-.534-2.261-1.257-3.113-2.168a9.589 9.589 0 0 1-1.961-3.152 10.407 10.407 0 0 1-.684-3.754c0-1.336.228-2.6.684-3.79a9.589 9.589 0 0 1 1.96-3.152c.853-.91 1.89-1.634 3.114-2.168 1.223-.535 2.602-.802 4.138-.802 1.535 0 2.909.267 4.12.802 1.212.534 2.243 1.257 3.095 2.168a9.589 9.589 0 0 1 1.961 3.152c.456 1.19.684 2.454.684 3.79 0 1.312-.228 2.563-.684 3.754a9.744 9.744 0 0 1-1.943 3.152c-.84.911-1.871 1.634-3.095 2.168-1.223.535-2.603.802-4.138.802zm-4.93-9.876c0 .85.127 1.622.379 2.314a5.67 5.67 0 0 0 1.043 1.804c.444.51.966.905 1.566 1.185.6.279 1.247.419 1.943.419s1.343-.14 1.943-.42a4.67 4.67 0 0 0 1.565-1.184 5.63 5.63 0 0 0 1.044-1.822c.252-.704.378-1.482.378-2.332 0-.826-.126-1.591-.378-2.296a5.63 5.63 0 0 0-1.044-1.822 4.67 4.67 0 0 0-1.565-1.184c-.6-.28-1.247-.42-1.943-.42s-1.344.146-1.943.438a4.89 4.89 0 0 0-1.566 1.202 5.63 5.63 0 0 0-1.043 1.822 6.772 6.772 0 0 0-.378 2.296zm37.353-7.288H94.784V4.628H114l-12.703 25.874h-5.433l10.543-21.428z"/>
</svg>
