<svg xmlns="http://www.w3.org/2000/svg" width="114" height="34" viewBox="0 0 114 34">
    <path fill="#BBB" fill-rule="nonzero" d="M0 25.917V.18h4.972v21.35h13.043v4.386H0zm29.473.362c-1.537 0-2.919-.265-4.144-.797s-2.264-1.25-3.116-2.157a9.528 9.528 0 0 1-1.964-3.135 10.29 10.29 0 0 1-.685-3.734c0-1.329.229-2.585.685-3.77a9.528 9.528 0 0 1 1.964-3.135c.852-.906 1.891-1.625 3.116-2.157 1.225-.531 2.607-.797 4.144-.797s2.912.266 4.125.797c1.213.532 2.246 1.251 3.099 2.157a9.528 9.528 0 0 1 1.964 3.136 10.39 10.39 0 0 1 .684 3.77c0 1.304-.228 2.549-.684 3.733a9.682 9.682 0 0 1-1.946 3.135c-.84.906-1.874 1.625-3.099 2.157s-2.606.797-4.143.797zm-4.936-9.823c0 .846.126 1.613.378 2.302.252.689.6 1.287 1.045 1.794.444.508.967.9 1.567 1.178.6.278 1.25.417 1.946.417s1.345-.139 1.945-.417c.601-.278 1.123-.67 1.568-1.178a5.592 5.592 0 0 0 1.045-1.812c.252-.7.378-1.474.378-2.32 0-.822-.126-1.583-.378-2.284-.253-.7-.6-1.304-1.045-1.812a4.673 4.673 0 0 0-1.568-1.178 4.576 4.576 0 0 0-1.945-.417c-.697 0-1.345.145-1.946.435-.6.29-1.123.689-1.567 1.196a5.592 5.592 0 0 0-1.045 1.813 6.696 6.696 0 0 0-.378 2.283zm25.365 9.57c-1.249 0-2.396-.254-3.44-.762a8.11 8.11 0 0 1-2.685-2.084 9.68 9.68 0 0 1-1.73-3.063 11.053 11.053 0 0 1-.612-3.697c0-1.377.216-2.658.648-3.842a9.984 9.984 0 0 1 1.802-3.117 8.275 8.275 0 0 1 2.756-2.103c1.07-.507 2.252-.761 3.55-.761 1.489 0 2.786.332 3.89.997a8.047 8.047 0 0 1 2.703 2.664V6.923h4.215v18.088c0 1.401-.258 2.658-.774 3.77a7.976 7.976 0 0 1-2.18 2.827c-.937.773-2.042 1.365-3.315 1.776-1.273.41-2.666.616-4.18.616-2.09 0-3.837-.344-5.242-1.033a10.563 10.563 0 0 1-3.62-2.918l2.63-2.574a7.483 7.483 0 0 0 2.72 2.103 8.24 8.24 0 0 0 3.513.761 7.42 7.42 0 0 0 2.143-.308 4.984 4.984 0 0 0 1.802-.96c.516-.436.925-.991 1.225-1.668.3-.677.45-1.474.45-2.392v-2.393a6.39 6.39 0 0 1-2.63 2.52 7.72 7.72 0 0 1-3.639.888zm1.657-3.879c.529 0 1.033-.084 1.514-.254.48-.169.918-.398 1.315-.688a5.65 5.65 0 0 0 1.063-1.015c.312-.387.552-.798.72-1.233v-4.53c-.432-1.112-1.105-2.006-2.017-2.683-.913-.676-1.874-1.015-2.883-1.015-.744 0-1.423.163-2.036.49a4.962 4.962 0 0 0-1.567 1.304 5.908 5.908 0 0 0-.99 1.867 6.98 6.98 0 0 0-.343 2.175c0 .773.132 1.498.396 2.175.265.676.63 1.269 1.1 1.776a5.12 5.12 0 0 0 1.657 1.196c.636.29 1.327.435 2.071.435zm22.52 4.132c-1.538 0-2.92-.265-4.144-.797-1.225-.532-2.264-1.25-3.117-2.157a9.528 9.528 0 0 1-1.963-3.135 10.29 10.29 0 0 1-.685-3.734c0-1.329.228-2.585.685-3.77a9.528 9.528 0 0 1 1.963-3.135c.853-.906 1.892-1.625 3.117-2.157 1.225-.531 2.606-.797 4.143-.797 1.538 0 2.913.266 4.126.797 1.213.532 2.246 1.251 3.098 2.157a9.528 9.528 0 0 1 1.964 3.136 10.39 10.39 0 0 1 .685 3.77c0 1.304-.228 2.549-.685 3.733a9.682 9.682 0 0 1-1.946 3.135c-.84.906-1.873 1.625-3.098 2.157-1.225.532-2.606.797-4.144.797zm-4.937-9.823c0 .846.126 1.613.379 2.302.252.689.6 1.287 1.044 1.794.445.508.967.9 1.568 1.178.6.278 1.249.417 1.945.417.697 0 1.346-.139 1.946-.417.6-.278 1.123-.67 1.567-1.178a5.592 5.592 0 0 0 1.045-1.812c.252-.7.379-1.474.379-2.32 0-.822-.127-1.583-.379-2.284-.252-.7-.6-1.304-1.045-1.812a4.673 4.673 0 0 0-1.567-1.178 4.576 4.576 0 0 0-1.946-.417c-.696 0-1.345.145-1.945.435-.6.29-1.123.689-1.568 1.196a5.592 5.592 0 0 0-1.044 1.813 6.696 6.696 0 0 0-.379 2.283zm44.858.87c0 1.257-.24 2.429-.72 3.516a9.046 9.046 0 0 1-1.964 2.846 8.964 8.964 0 0 1-2.955 1.903c-1.14.459-2.372.688-3.693.688-1.441 0-2.744-.265-3.91-.797a8.072 8.072 0 0 1-2.972-2.32c-.816-1.015-1.447-2.253-1.891-3.715-.445-1.462-.667-3.124-.667-4.984 0-2.344.234-4.416.703-6.217.468-1.8 1.129-3.31 1.981-4.53.853-1.221 1.892-2.145 3.117-2.774C102.254.314 103.623 0 105.137 0c1.609 0 3.098.35 4.467 1.051 1.37.701 2.522 1.704 3.46 3.009l-2.775 3.044a6.122 6.122 0 0 0-2.234-2.138 6.052 6.052 0 0 0-2.99-.761c-1.61 0-2.889.64-3.838 1.92-.949 1.282-1.447 3.094-1.495 5.438.48-.87 1.189-1.559 2.126-2.066.937-.508 2.017-.761 3.243-.761 1.249 0 2.42.217 3.512.652a8.5 8.5 0 0 1 2.829 1.812 8.52 8.52 0 0 1 1.873 2.737 8.417 8.417 0 0 1 .685 3.39zm-9.332 4.857c.649 0 1.255-.126 1.82-.38a4.8 4.8 0 0 0 1.495-1.051 5.087 5.087 0 0 0 1.027-1.559 4.714 4.714 0 0 0 .378-1.867c0-.652-.126-1.262-.378-1.83A5.158 5.158 0 0 0 108 13.99a4.442 4.442 0 0 0-1.494-1.014 4.705 4.705 0 0 0-1.838-.363c-.648 0-1.26.12-1.837.363a4.442 4.442 0 0 0-1.496 1.014c-.42.435-.756.937-1.009 1.505a4.458 4.458 0 0 0-.378 1.83c0 .653.126 1.275.378 1.867a4.864 4.864 0 0 0 1.027 1.54c.433.435.931.786 1.496 1.052a4.217 4.217 0 0 0 1.82.398z"/>
</svg>
