<svg xmlns="http://www.w3.org/2000/svg" width="114" height="34" viewBox="0 0 114 34">
    <path fill="#BBB" fill-rule="nonzero" d="M0 25.874V0h4.994v21.464h13.101v4.41H0zm29.604.364c-1.544 0-2.932-.267-4.162-.802-1.23-.534-2.274-1.257-3.13-2.168a9.58 9.58 0 0 1-1.973-3.152 10.354 10.354 0 0 1-.688-3.754c0-1.336.23-2.6.688-3.79a9.58 9.58 0 0 1 1.972-3.152c.857-.91 1.9-1.634 3.13-2.168 1.231-.535 2.619-.802 4.163-.802s2.925.267 4.144.802c1.218.534 2.255 1.257 3.112 2.168a9.58 9.58 0 0 1 1.972 3.152c.459 1.19.688 2.454.688 3.79 0 1.312-.23 2.563-.688 3.754a9.735 9.735 0 0 1-1.954 3.152c-.844.911-1.882 1.634-3.112 2.168-1.23.535-2.618.802-4.162.802zm-4.958-9.876c0 .85.126 1.622.38 2.314a5.663 5.663 0 0 0 1.05 1.804c.446.51.97.905 1.574 1.185.603.279 1.254.419 1.954.419s1.35-.14 1.954-.42a4.694 4.694 0 0 0 1.574-1.184 5.623 5.623 0 0 0 1.05-1.822c.253-.704.38-1.482.38-2.332 0-.826-.127-1.591-.38-2.296a5.623 5.623 0 0 0-1.05-1.822 4.694 4.694 0 0 0-1.574-1.184 4.593 4.593 0 0 0-1.954-.42c-.7 0-1.351.146-1.954.438a4.914 4.914 0 0 0-1.575 1.202 5.623 5.623 0 0 0-1.05 1.822 6.737 6.737 0 0 0-.38 2.296zm25.478 9.62c-1.255 0-2.407-.254-3.456-.764a8.147 8.147 0 0 1-2.697-2.096 9.735 9.735 0 0 1-1.737-3.08 11.121 11.121 0 0 1-.615-3.716c0-1.385.217-2.673.651-3.863a10.04 10.04 0 0 1 1.81-3.134 8.312 8.312 0 0 1 2.769-2.114c1.073-.51 2.261-.765 3.564-.765 1.496 0 2.8.334 3.909 1.002a8.086 8.086 0 0 1 2.714 2.679V6.778h4.234v18.184c0 1.41-.259 2.673-.778 3.79a8.018 8.018 0 0 1-2.19 2.843c-.94.777-2.05 1.372-3.329 1.785-1.278.413-2.678.62-4.198.62-2.099 0-3.854-.346-5.265-1.039a10.612 10.612 0 0 1-3.638-2.933l2.642-2.587a7.517 7.517 0 0 0 2.733 2.113 8.27 8.27 0 0 0 3.528.765c.748 0 1.466-.103 2.154-.31a5.005 5.005 0 0 0 1.81-.965 4.578 4.578 0 0 0 1.23-1.676c.301-.68.452-1.482.452-2.406v-2.405a6.42 6.42 0 0 1-2.642 2.533 7.749 7.749 0 0 1-3.655.893zm1.665-3.898a4.54 4.54 0 0 0 1.52-.255c.482-.17.922-.401 1.32-.693a5.677 5.677 0 0 0 1.068-1.02c.314-.389.555-.802.724-1.24v-4.554c-.434-1.118-1.11-2.017-2.027-2.697-.917-.68-1.882-1.02-2.895-1.02-.748 0-1.43.163-2.045.491a4.985 4.985 0 0 0-1.574 1.312 5.942 5.942 0 0 0-.995 1.877 7.023 7.023 0 0 0-.344 2.187c0 .777.133 1.506.398 2.186.265.68.633 1.276 1.104 1.786.47.51 1.025.91 1.665 1.202.639.292 1.333.438 2.08.438zm22.619 4.154c-1.545 0-2.932-.267-4.162-.802-1.23-.534-2.274-1.257-3.13-2.168a9.58 9.58 0 0 1-1.973-3.152 10.354 10.354 0 0 1-.688-3.754c0-1.336.23-2.6.688-3.79a9.58 9.58 0 0 1 1.972-3.152c.857-.91 1.9-1.634 3.13-2.168 1.231-.535 2.618-.802 4.163-.802 1.544 0 2.925.267 4.143.802 1.219.534 2.256 1.257 3.113 2.168a9.58 9.58 0 0 1 1.972 3.152c.459 1.19.688 2.454.688 3.79 0 1.312-.23 2.563-.688 3.754a9.735 9.735 0 0 1-1.954 3.152c-.845.911-1.882 1.634-3.112 2.168-1.231.535-2.618.802-4.162.802zm-4.958-9.876c0 .85.126 1.622.38 2.314a5.663 5.663 0 0 0 1.049 1.804c.446.51.971.905 1.574 1.185.604.279 1.255.419 1.955.419.7 0 1.35-.14 1.954-.42a4.694 4.694 0 0 0 1.574-1.184 5.623 5.623 0 0 0 1.05-1.822c.253-.704.38-1.482.38-2.332 0-.826-.127-1.591-.38-2.296a5.623 5.623 0 0 0-1.05-1.822 4.694 4.694 0 0 0-1.574-1.184 4.593 4.593 0 0 0-1.954-.42c-.7 0-1.351.146-1.955.438a4.914 4.914 0 0 0-1.574 1.202 5.623 5.623 0 0 0-1.05 1.822 6.737 6.737 0 0 0-.38 2.296zm25.695-2.296c0-1.263.241-2.441.724-3.534A9.095 9.095 0 0 1 97.84 7.67a9.003 9.003 0 0 1 2.968-1.913c1.146-.462 2.382-.693 3.71-.693 1.447 0 2.756.268 3.926.802A8.11 8.11 0 0 1 111.43 8.2c.82 1.02 1.454 2.266 1.9 3.736.447 1.47.67 3.14.67 5.01 0 2.357-.235 4.44-.706 6.25-.47 1.81-1.134 3.328-1.99 4.555-.857 1.227-1.9 2.156-3.13 2.788-1.231.632-2.606.948-4.126.948-1.617 0-3.113-.353-4.488-1.057-1.375-.705-2.533-1.713-3.474-3.025l2.786-3.061a6.151 6.151 0 0 0 2.244 2.15c.917.51 1.918.765 3.004.765 1.617 0 2.901-.643 3.854-1.931.953-1.288 1.454-3.11 1.502-5.466-.482.874-1.194 1.567-2.135 2.077-.941.51-2.027.765-3.257.765-1.279 0-2.461-.219-3.547-.656a8.58 8.58 0 0 1-2.823-1.822 8.566 8.566 0 0 1-2.57-6.159zm9.373-4.883c-.651 0-1.26.128-1.828.383a4.822 4.822 0 0 0-1.501 1.057c-.435.45-.779.971-1.032 1.567a4.743 4.743 0 0 0-.38 1.876c0 .656.127 1.27.38 1.84.253.572.591 1.076 1.013 1.513.423.437.923.777 1.502 1.02a4.722 4.722 0 0 0 1.846.365c.652 0 1.267-.122 1.846-.365a4.462 4.462 0 0 0 1.502-1.02c.422-.437.76-.941 1.013-1.512.253-.571.38-1.185.38-1.84 0-.656-.127-1.282-.38-1.877a4.89 4.89 0 0 0-1.031-1.55 5.258 5.258 0 0 0-1.502-1.056 4.233 4.233 0 0 0-1.828-.4z"/>
</svg>
