<svg xmlns="http://www.w3.org/2000/svg" width="112" height="33" viewBox="0 0 112 33">
    <path fill="#BBB" fill-rule="nonzero" d="M0 25.113V0h4.954v20.833h12.995v4.28H0zm29.364.353c-1.532 0-2.908-.26-4.128-.778-1.22-.519-2.256-1.22-3.105-2.104a9.272 9.272 0 0 1-1.957-3.06 9.859 9.859 0 0 1-.682-3.643c0-1.297.228-2.523.682-3.678a9.272 9.272 0 0 1 1.957-3.06c.85-.884 1.884-1.586 3.105-2.104 1.22-.52 2.596-.779 4.128-.779s2.902.26 4.11.779c1.209.518 2.238 1.22 3.088 2.104a9.272 9.272 0 0 1 1.956 3.06 9.953 9.953 0 0 1 .682 3.678 9.859 9.859 0 0 1-.682 3.643 9.42 9.42 0 0 1-1.939 3.06c-.837.884-1.866 1.585-3.087 2.104-1.22.519-2.596.778-4.128.778zm-4.918-9.585c0 .825.126 1.574.377 2.246a5.47 5.47 0 0 0 1.041 1.75c.443.496.963.88 1.562 1.15a4.64 4.64 0 0 0 1.938.407 4.64 4.64 0 0 0 1.939-.407 4.648 4.648 0 0 0 1.561-1.15 5.43 5.43 0 0 0 1.041-1.768c.251-.683.377-1.438.377-2.263 0-.802-.126-1.545-.377-2.229a5.43 5.43 0 0 0-1.04-1.768 4.648 4.648 0 0 0-1.562-1.15 4.64 4.64 0 0 0-1.939-.406c-.694 0-1.34.141-1.938.424a4.864 4.864 0 0 0-1.562 1.167 5.43 5.43 0 0 0-1.04 1.769 6.412 6.412 0 0 0-.378 2.228zm25.272 9.338c-1.245 0-2.387-.248-3.428-.743a8.06 8.06 0 0 1-2.675-2.034 9.397 9.397 0 0 1-1.723-2.989 10.584 10.584 0 0 1-.61-3.607c0-1.344.215-2.594.646-3.75a9.696 9.696 0 0 1 1.795-3.041 8.228 8.228 0 0 1 2.746-2.052c1.065-.495 2.244-.743 3.536-.743 1.484 0 2.776.325 3.877.973a7.94 7.94 0 0 1 2.692 2.6V6.579h4.2v17.65c0 1.367-.257 2.593-.771 3.678a7.806 7.806 0 0 1-2.172 2.759c-.934.754-2.034 1.332-3.303 1.733-1.268.4-2.656.601-4.164.601-2.082 0-3.823-.336-5.223-1.008a10.487 10.487 0 0 1-3.608-2.847l2.62-2.512c.719.873 1.622 1.557 2.711 2.052a8.355 8.355 0 0 0 3.5.743c.742 0 1.454-.1 2.136-.301a5 5 0 0 0 1.795-.937 4.451 4.451 0 0 0 1.22-1.627c.3-.66.45-1.439.45-2.335v-2.334a6.31 6.31 0 0 1-2.621 2.458 7.822 7.822 0 0 1-3.626.867zm1.651-3.785c.527 0 1.03-.082 1.508-.248.479-.165.915-.389 1.31-.672a5.58 5.58 0 0 0 1.06-.99 4.46 4.46 0 0 0 .717-1.202V13.9c-.43-1.084-1.1-1.957-2.01-2.617-.91-.66-1.867-.99-2.872-.99-.742 0-1.418.159-2.028.477-.61.318-1.13.743-1.562 1.273-.43.531-.76 1.138-.987 1.822a6.683 6.683 0 0 0-.34 2.122c0 .755.13 1.462.394 2.122.263.66.628 1.238 1.095 1.733a5.099 5.099 0 0 0 1.651 1.168 5.008 5.008 0 0 0 2.064.424zm22.436 4.032c-1.532 0-2.908-.26-4.128-.778-1.22-.519-2.256-1.22-3.105-2.104a9.272 9.272 0 0 1-1.957-3.06 9.859 9.859 0 0 1-.682-3.643c0-1.297.228-2.523.682-3.678a9.272 9.272 0 0 1 1.957-3.06c.85-.884 1.884-1.586 3.105-2.104 1.22-.52 2.596-.779 4.128-.779s2.902.26 4.11.779c1.209.518 2.238 1.22 3.088 2.104a9.272 9.272 0 0 1 1.956 3.06 9.953 9.953 0 0 1 .682 3.678 9.859 9.859 0 0 1-.682 3.643 9.42 9.42 0 0 1-1.938 3.06c-.838.884-1.867 1.585-3.088 2.104-1.22.519-2.596.778-4.128.778zm-4.918-9.585c0 .825.126 1.574.377 2.246a5.47 5.47 0 0 0 1.041 1.75c.443.496.963.88 1.562 1.15a4.64 4.64 0 0 0 1.938.407 4.64 4.64 0 0 0 1.939-.407 4.648 4.648 0 0 0 1.561-1.15 5.43 5.43 0 0 0 1.041-1.768c.251-.683.377-1.438.377-2.263 0-.802-.126-1.545-.377-2.229a5.43 5.43 0 0 0-1.04-1.768 4.648 4.648 0 0 0-1.562-1.15 4.64 4.64 0 0 0-1.939-.406c-.694 0-1.34.141-1.938.424a4.864 4.864 0 0 0-1.562 1.167 5.43 5.43 0 0 0-1.04 1.769 6.412 6.412 0 0 0-.378 2.228zM103.6 13.83c1.197 0 2.31.194 3.338.583 1.03.39 1.921.937 2.675 1.645a7.397 7.397 0 0 1 1.759 2.547c.419.99.628 2.086.628 3.289 0 1.273-.24 2.429-.718 3.466a8.012 8.012 0 0 1-1.974 2.67c-.838.743-1.831 1.321-2.98 1.734-1.149.412-2.393.619-3.733.619-1.867 0-3.536-.39-5.008-1.168-1.472-.778-2.59-1.839-3.356-3.183l2.764-2.83a7.86 7.86 0 0 0 2.53 2.193c.994.543 2.029.814 3.106.814 1.292 0 2.351-.383 3.177-1.15.825-.766 1.238-1.786 1.238-3.059 0-1.226-.389-2.217-1.167-2.971-.777-.755-1.764-1.132-2.961-1.132-.79 0-1.526.177-2.208.53a4.292 4.292 0 0 0-1.633 1.45h-4.2c0-.07.048-.335.144-.795a228.632 228.632 0 0 0 .825-4.174c.168-.884.347-1.786.539-2.705.43-2.17.909-4.598 1.436-7.287h12.564v4.316h-9.082l-1.006 5.623c.288-.306.706-.554 1.257-.742.55-.19 1.232-.283 2.046-.283z"/>
</svg>
