<svg xmlns="http://www.w3.org/2000/svg" width="114" height="34" viewBox="0 0 114 34">
    <path fill="#BBB" fill-rule="nonzero" d="M0 25.874V0h4.983v21.464h13.072v4.41H0zm29.538.364c-1.54 0-2.925-.267-4.153-.802-1.227-.534-2.268-1.257-3.123-2.168a9.584 9.584 0 0 1-1.968-3.152 10.375 10.375 0 0 1-.686-3.754c0-1.336.229-2.6.686-3.79a9.584 9.584 0 0 1 1.968-3.152c.855-.91 1.896-1.634 3.123-2.168 1.228-.535 2.612-.802 4.153-.802 1.54 0 2.92.267 4.135.802 1.216.534 2.25 1.257 3.105 2.168a9.584 9.584 0 0 1 1.968 3.152c.458 1.19.686 2.454.686 3.79 0 1.312-.228 2.563-.686 3.754a9.739 9.739 0 0 1-1.95 3.152c-.842.911-1.877 1.634-3.105 2.168-1.228.535-2.612.802-4.153.802zm-4.947-9.876c0 .85.126 1.622.38 2.314a5.666 5.666 0 0 0 1.046 1.804c.446.51.97.905 1.571 1.185.602.279 1.252.419 1.95.419s1.348-.14 1.95-.42a4.684 4.684 0 0 0 1.57-1.184 5.626 5.626 0 0 0 1.048-1.822c.253-.704.38-1.482.38-2.332 0-.826-.127-1.591-.38-2.296a5.626 5.626 0 0 0-1.047-1.822 4.684 4.684 0 0 0-1.57-1.184 4.574 4.574 0 0 0-1.95-.42c-.699 0-1.349.146-1.95.438a4.905 4.905 0 0 0-1.572 1.202 5.626 5.626 0 0 0-1.047 1.822 6.751 6.751 0 0 0-.379 2.296zm25.422 9.62c-1.252 0-2.402-.254-3.449-.764a8.132 8.132 0 0 1-2.69-2.096 9.74 9.74 0 0 1-1.733-3.08 11.144 11.144 0 0 1-.614-3.716c0-1.385.216-2.673.65-3.863a10.045 10.045 0 0 1 1.805-3.134 8.296 8.296 0 0 1 2.763-2.114c1.071-.51 2.257-.765 3.557-.765 1.492 0 2.792.334 3.9 1.002a8.077 8.077 0 0 1 2.708 2.679V6.778h4.225v18.184c0 1.41-.26 2.673-.777 3.79a8.016 8.016 0 0 1-2.184 2.843c-.94.777-2.047 1.372-3.323 1.785-1.275.413-2.672.62-4.188.62-2.095 0-3.846-.346-5.254-1.039a10.593 10.593 0 0 1-3.63-2.933l2.637-2.587a7.502 7.502 0 0 0 2.726 2.113 8.236 8.236 0 0 0 3.52.765c.747 0 1.463-.103 2.15-.31a4.99 4.99 0 0 0 1.805-.965 4.578 4.578 0 0 0 1.227-1.676c.301-.68.452-1.482.452-2.406v-2.405a6.412 6.412 0 0 1-2.636 2.533 7.718 7.718 0 0 1-3.647.893zm1.66-3.898a4.52 4.52 0 0 0 1.517-.255c.482-.17.921-.401 1.318-.693a5.67 5.67 0 0 0 1.066-1.02 4.62 4.62 0 0 0 .722-1.24v-4.554c-.433-1.118-1.108-2.017-2.022-2.697-.915-.68-1.878-1.02-2.89-1.02a4.26 4.26 0 0 0-2.04.491 4.977 4.977 0 0 0-1.57 1.312 5.946 5.946 0 0 0-.993 1.877 7.037 7.037 0 0 0-.343 2.187c0 .777.132 1.506.397 2.186.265.68.632 1.276 1.101 1.786.47.51 1.023.91 1.661 1.202.638.292 1.33.438 2.077.438zm22.57 4.154c-1.541 0-2.925-.267-4.153-.802-1.228-.534-2.269-1.257-3.124-2.168a9.584 9.584 0 0 1-1.968-3.152 10.375 10.375 0 0 1-.686-3.754c0-1.336.229-2.6.686-3.79a9.584 9.584 0 0 1 1.968-3.152c.855-.91 1.896-1.634 3.124-2.168 1.228-.535 2.612-.802 4.153-.802 1.54 0 2.919.267 4.134.802 1.216.534 2.251 1.257 3.106 2.168a9.584 9.584 0 0 1 1.968 3.152c.457 1.19.686 2.454.686 3.79 0 1.312-.229 2.563-.686 3.754a9.739 9.739 0 0 1-1.95 3.152c-.843.911-1.878 1.634-3.106 2.168-1.227.535-2.612.802-4.152.802zm-4.947-9.876c0 .85.126 1.622.379 2.314a5.666 5.666 0 0 0 1.047 1.804c.445.51.969.905 1.57 1.185.603.279 1.253.419 1.95.419.699 0 1.349-.14 1.95-.42a4.684 4.684 0 0 0 1.571-1.184 5.626 5.626 0 0 0 1.048-1.822c.252-.704.379-1.482.379-2.332 0-.826-.127-1.591-.38-2.296a5.626 5.626 0 0 0-1.047-1.822 4.684 4.684 0 0 0-1.57-1.184 4.574 4.574 0 0 0-1.95-.42c-.698 0-1.348.146-1.95.438a4.905 4.905 0 0 0-1.571 1.202 5.626 5.626 0 0 0-1.047 1.822 6.751 6.751 0 0 0-.38 2.296zM114 18.221c0 1.215-.247 2.308-.74 3.28a7.816 7.816 0 0 1-2.022 2.514c-.855.705-1.848 1.245-2.98 1.622a11.362 11.362 0 0 1-3.61.565c-1.276 0-2.474-.2-3.594-.602-1.119-.4-2.1-.965-2.943-1.694a8.204 8.204 0 0 1-2.004-2.588c-.493-.996-.74-2.089-.74-3.28 0-.728.12-1.402.361-2.022.241-.62.554-1.184.94-1.694a7.64 7.64 0 0 1 1.3-1.349 8.174 8.174 0 0 1 1.443-.947c-.914-.438-1.685-1.094-2.31-1.968-.627-.875-.94-1.834-.94-2.879 0-1.166.26-2.193.777-3.08a7.319 7.319 0 0 1 2.022-2.24 9.432 9.432 0 0 1 2.744-1.385 9.84 9.84 0 0 1 2.98-.474c.987 0 1.986.152 2.997.456a9.054 9.054 0 0 1 2.762 1.366 7.319 7.319 0 0 1 2.022 2.241c.518.887.777 1.913.777 3.08 0 1.044-.32 2.016-.957 2.915-.638.899-1.415 1.555-2.33 1.968a9.215 9.215 0 0 1 1.5 1.002 7.068 7.068 0 0 1 2.202 3.116A6.06 6.06 0 0 1 114 18.22zm-4.911-.292a3.5 3.5 0 0 0-.38-1.64 3.776 3.776 0 0 0-.992-1.22 4.36 4.36 0 0 0-1.408-.747 5.284 5.284 0 0 0-1.625-.256 5.07 5.07 0 0 0-1.662.274c-.53.182-.999.443-1.408.783-.41.34-.734.747-.975 1.221a3.448 3.448 0 0 0-.36 1.585c0 .583.125 1.112.378 1.585.253.474.584.881.993 1.221.41.34.885.602 1.427.784.541.182 1.089.273 1.643.273.577 0 1.125-.097 1.643-.291a4.792 4.792 0 0 0 1.39-.802c.41-.34.734-.747.975-1.221.24-.474.361-.99.361-1.549zm-8.016-10.604c0 .51.108.953.325 1.33.216.376.5.692.848.947.35.255.734.45 1.156.583.42.134.848.2 1.282.2.433 0 .866-.066 1.3-.2a3.713 3.713 0 0 0 1.173-.6c.35-.268.632-.59.849-.967.216-.376.325-.82.325-1.33 0-.899-.361-1.615-1.084-2.15-.722-.534-1.576-.801-2.563-.801-.987 0-1.836.273-2.546.82-.71.546-1.065 1.269-1.065 2.168z"/>
</svg>
