<svg xmlns="http://www.w3.org/2000/svg" width="24" height="22" viewBox="0 0 24 22">
    <path fill="#FFF" fill-rule="evenodd" d="M12.23 0h-.059l-.413.004c-.532 0-1.598.074-2.743.566a6.127 6.127 0 0 0-1.75 1.132 6.387 6.387 0 0 0-1.463 2.05c-.536 1.172-.409 3.147-.307 4.734v.002l.034.52a.96.96 0 0 1-.395.073c-.302 0-.662-.094-1.069-.28a.977.977 0 0 0-.407-.082c-.242 0-.497.07-.718.197-.279.159-.459.384-.508.634-.032.166-.03.492.342.824.204.182.505.35.893.5.102.039.223.076.351.116.445.138 1.117.346 1.293.748.089.204.05.473-.114.797l-.012.027a7.697 7.697 0 0 1-1.208 1.828c-.446.507-.937.93-1.458 1.259a5.445 5.445 0 0 1-2.048.78.551.551 0 0 0-.47.57c.005.081.024.162.058.24.115.262.381.484.813.68.528.24 1.318.44 2.347.598.052.096.106.338.143.504.04.177.08.358.138.55.063.21.226.459.644.459.158 0 .34-.035.552-.075.309-.06.731-.14 1.259-.14.292 0 .595.025.9.075.589.095 1.096.444 1.682.849.859.591 1.83 1.261 3.315 1.261.04 0 .082-.001.122-.004.049.002.11.004.174.004 1.485 0 2.457-.67 3.314-1.261l.002-.001c.586-.404 1.093-.753 1.68-.848.306-.05.609-.075.901-.075.504 0 .903.063 1.26.13.232.045.412.067.551.067h.028c.306 0 .53-.164.616-.45.057-.189.098-.366.138-.545.035-.156.09-.405.143-.502 1.03-.158 1.819-.359 2.347-.598.431-.195.696-.416.812-.677A.687.687 0 0 0 24 17a.551.551 0 0 0-.471-.572c-3.209-.515-4.654-3.73-4.714-3.866a.387.387 0 0 0-.012-.026c-.164-.325-.202-.593-.113-.798.175-.402.847-.61 1.291-.747.13-.04.25-.077.352-.116.437-.169.75-.352.957-.56.246-.247.294-.484.291-.64-.007-.375-.302-.709-.77-.872a1.409 1.409 0 0 0-.523-.098c-.125 0-.31.017-.485.097-.376.171-.712.265-1 .278a.924.924 0 0 1-.331-.071c.008-.147.018-.297.028-.454l.004-.067c.103-1.588.23-3.565-.306-4.738a6.396 6.396 0 0 0-1.468-2.055c-.508-.47-1.1-.85-1.756-1.132A7.143 7.143 0 0 0 12.23 0"/>
</svg>
